# xmcd CD database file
#
# Track frame offsets:
#	150
#	19837
#	37195
#
# Disc length: 738 seconds
#
# Revision: 0
# Processed by: cddbd v1.5.1PL0 Copyright (c) Steve Scherf et al.
# Submitted via: CDex 1.51
#
DISCID=2002e003
DTITLE=MIRAGE - Rain
DYEAR=1998
DGENRE=Rock
TTITLE0=Wind Whisper
TTITLE1=CROSS
TTITLE2=Rain
EXTD=YEAR: 1998
EXTT0=
EXTT1=
EXTT2=
PLAYORDER=
